<?xml version="1.0" encoding="UTF-8"?>
<svg xmlns="http://www.w3.org/2000/svg" xmlns:svg="http://www.w3.org/2000/svg" version="1.1" viewBox="0 0 1400 690">
	<title>The titlepage for the Standard Ebooks edition of Around the World In Eighty Days, by Jules Verne. Translated by George Makepeace Towle</title>
	<g style="font-size:93.56725311px;font-family:'League Spartan';letter-spacing:5px;text-anchor:middle;fill:#000000">
		<path d="m 191.69371,52.807016 -16.28071,0 L 144.25511,130 l 18.90058,0 5.70761,-15.4386 29.38011,0 5.70761,15.4386 18.90058,0 -31.15789,-77.192984 z m 0.5614,46.31579 -17.40351,0 8.60819,-22.45614 0.18713,0 8.60819,22.45614 z" style="font-size:93.56725311px;font-family:'League Spartan';letter-spacing:5px;text-anchor:middle;fill:#000000"/>
		<path d="m 230.77119,52.807016 0,77.192984 17.59065,0 0,-30.502925 L 271.94078,130 l 22.36258,0 -26.5731,-31.906433 c 9.45029,-2.994152 15.81286,-10.760234 15.81286,-22.362574 0,-15.157895 -10.8538,-22.923977 -25.16959,-22.923977 l -27.60234,0 z m 17.59065,34.245615 0,-20.210527 2.05847,0 c 6.64328,0 14.5965,0.467836 14.5965,10.105263 0,9.637428 -7.95322,10.105264 -14.5965,10.105264 l -2.05847,0 z" style="font-size:93.56725311px;font-family:'League Spartan';letter-spacing:5px;text-anchor:middle;fill:#000000"/>
		<path d="m 299.37793,91.356724 c 0,22.549706 16.09357,40.046786 38.92398,40.046786 22.17544,0 38.83041,-17.49708 38.83041,-40.046786 0,-22.549708 -17.40351,-39.953217 -38.83041,-39.953217 -21.23977,0 -38.92398,17.403509 -38.92398,39.953217 z m 18.99415,0 c 0,-11.508772 6.36257,-23.017544 19.92983,-23.017544 13.66082,0 19.83625,11.508772 19.83625,23.017544 0,11.508776 -5.80117,23.017546 -19.83625,23.017546 -14.40936,0 -19.92983,-11.50877 -19.92983,-23.017546 z" style="font-size:93.56725311px;font-family:'League Spartan';letter-spacing:5px;text-anchor:middle;fill:#000000"/>
		<path d="m 449.21563,52.807016 -17.59064,0 0,44.63158 c 0,12.912284 -3.92983,16.654974 -12.53801,16.654974 -8.60819,0 -12.53801,-3.74269 -12.53801,-16.654974 l 0,-44.63158 -17.59065,0 0,49.777774 c 0,19.08772 10.47953,28.81872 30.12866,28.81872 19.64912,0 30.12865,-9.731 30.12865,-28.81872 l 0,-49.777774 z" style="font-size:93.56725311px;font-family:'League Spartan';letter-spacing:5px;text-anchor:middle;fill:#000000"/>
		<path d="m 482.11184,82.093566 0.18713,0 L 512.98903,130 l 17.59064,0 0,-77.192984 -17.59064,0 0,47.906434 -0.18714,0 -30.69005,-47.906434 -17.59065,0 0,77.192984 17.59065,0 0,-47.906434 z" style="font-size:93.56725311px;font-family:'League Spartan';letter-spacing:5px;text-anchor:middle;fill:#000000"/>
		<path d="m 546.82383,52.807016 0,77.192984 22.36258,0 c 21.23976,0 38.92398,-16.09357 38.92398,-38.643276 0,-22.45614 -17.77778,-38.549708 -38.92398,-38.549708 l -22.36258,0 z m 17.59065,61.473684 0,-45.754385 2.71345,0 c 13.09941,0 21.9883,10.011696 21.9883,22.923977 -0.0936,12.912278 -8.98245,22.830408 -21.9883,22.830408 l -2.71345,0 z" style="font-size:93.56725311px;font-family:'League Spartan';letter-spacing:5px;text-anchor:middle;fill:#000000"/>
		<path d="m 642.05337,68.245613 18.33918,0 0,61.754387 17.59064,0 0,-61.754387 18.33919,0 0,-15.438597 -54.26901,0 0,15.438597 z" style="font-size:93.56725311px;font-family:'League Spartan';letter-spacing:5px;text-anchor:middle;fill:#000000"/>
		<path d="m 725.24782,99.029239 24.88889,0 0,30.970761 17.59064,0 0,-77.192984 -17.59064,0 0,30.783626 -24.88889,0 0,-30.783626 -17.59064,0 0,77.192984 17.59064,0 0,-30.970761 z" style="font-size:93.56725311px;font-family:'League Spartan';letter-spacing:5px;text-anchor:middle;fill:#000000"/>
		<path d="m 828.09283,52.807016 -44.16374,0 0,77.192984 44.16374,0 0,-15.4386 -26.5731,0 0,-15.532161 25.4503,0 0,-15.438597 -25.4503,0 0,-15.345029 26.5731,0 0,-15.438597 z" style="font-size:93.56725311px;font-family:'League Spartan';letter-spacing:5px;text-anchor:middle;fill:#000000"/>
		<path d="m 924.97735,130 19.46199,0 21.9883,-77.192984 -19.46198,0 -13.19299,52.959064 -0.46783,0 -14.03509,-52.959064 -13.28655,0 -14.03509,52.959064 -0.46784,0 -13.19298,-52.959064 -19.55555,0 L 880.72004,130 900.2756,130 912.62647,86.678362 924.97735,130 Z" style="font-size:93.56725311px;font-family:'League Spartan';letter-spacing:5px;text-anchor:middle;fill:#000000"/>
		<path d="m 969.26099,91.356724 c 0,22.549706 16.09356,40.046786 38.92401,40.046786 22.1754,0 38.8304,-17.49708 38.8304,-40.046786 0,-22.549708 -17.4035,-39.953217 -38.8304,-39.953217 -21.2398,0 -38.92401,17.403509 -38.92401,39.953217 z m 18.99415,0 c 0,-11.508772 6.36257,-23.017544 19.92986,-23.017544 13.6608,0 19.8362,11.508772 19.8362,23.017544 0,11.508776 -5.8011,23.017546 -19.8362,23.017546 -14.40939,0 -19.92986,-11.50877 -19.92986,-23.017546 z" style="font-size:93.56725311px;font-family:'League Spartan';letter-spacing:5px;text-anchor:middle;fill:#000000"/>
		<path d="m 1059.7771,52.807016 0,77.192984 17.5906,0 0,-30.502925 23.5789,30.502925 22.3626,0 -26.5731,-31.906433 c 9.4503,-2.994152 15.8129,-10.760234 15.8129,-22.362574 0,-15.157895 -10.8538,-22.923977 -25.1696,-22.923977 l -27.6023,0 z m 17.5906,34.245615 0,-20.210527 2.0585,0 c 6.6432,0 14.5965,0.467836 14.5965,10.105263 0,9.637428 -7.9533,10.105264 -14.5965,10.105264 l -2.0585,0 z" style="font-size:93.56725311px;font-family:'League Spartan';letter-spacing:5px;text-anchor:middle;fill:#000000"/>
		<path d="m 1149.4364,52.807016 -17.5906,0 0,77.192984 44.1637,0 0,-15.4386 -26.5731,0 0,-61.754384 z" style="font-size:93.56725311px;font-family:'League Spartan';letter-spacing:5px;text-anchor:middle;fill:#000000"/>
		<path d="m 1189.66,52.807016 0,77.192984 22.3626,0 c 21.2398,0 38.924,-16.09357 38.924,-38.643276 0,-22.45614 -17.7778,-38.549708 -38.924,-38.549708 l -22.3626,0 z m 17.5907,61.473684 0,-45.754385 2.7134,0 c 13.0995,0 21.9883,10.011696 21.9883,22.923977 -0.093,12.912278 -8.9824,22.830408 -21.9883,22.830408 l -2.7134,0 z" style="font-size:93.56725311px;font-family:'League Spartan';letter-spacing:5px;text-anchor:middle;fill:#000000"/>
	</g>
	<g style="font-size:93.56725311px;font-family:'League Spartan';letter-spacing:5px;text-anchor:middle;fill:#000000">
		<path d="m 305.47075,152.80702 -17.59064,0 0,77.19298 17.59064,0 0,-77.19298 z" style="font-size:93.56725311px;font-family:'League Spartan';letter-spacing:5px;text-anchor:middle;fill:#000000"/>
		<path d="m 339.34502,182.09357 0.18714,0 30.69005,47.90643 17.59065,0 0,-77.19298 -17.59065,0 0,47.90643 -0.18713,0 -30.69006,-47.90643 -17.59064,0 0,77.19298 17.59064,0 0,-47.90643 z" style="font-size:93.56725311px;font-family:'League Spartan';letter-spacing:5px;text-anchor:middle;fill:#000000"/>
		<path d="m 478.80556,152.80702 -44.16375,0 0,77.19298 44.16375,0 0,-15.4386 -26.5731,0 0,-15.53216 25.45029,0 0,-15.4386 -25.45029,0 0,-15.34503 26.5731,0 0,-15.43859 z" style="font-size:93.56725311px;font-family:'League Spartan';letter-spacing:5px;text-anchor:middle;fill:#000000"/>
		<path d="m 511.50878,152.80702 -17.59064,0 0,77.19298 17.59064,0 0,-77.19298 z" style="font-size:93.56725311px;font-family:'League Spartan';letter-spacing:5px;text-anchor:middle;fill:#000000"/>
		<path d="m 597.59357,186.77193 -35.64912,0 0,13.56725 17.77778,0 c 0,9.45029 -8.32749,14.87719 -16.74854,14.87719 -10.8538,0 -19.64912,-10.66666 -19.64912,-23.76608 0,-13.38012 8.79532,-24.14035 19.64912,-24.14035 6.83041,0 12.72515,2.71345 17.21637,9.91813 l 11.50878,-12.63158 c -6.73685,-8.14035 -16.18714,-13.19298 -29.75439,-13.19298 -21.7076,0 -37.61404,17.87134 -37.61404,40.04678 0,22.08187 16.84211,39.95322 37.61404,39.95322 15.1579,0 31.4386,-8.32749 35.64912,-27.88304 l 0,-16.74854 z" style="font-size:93.56725311px;font-family:'League Spartan';letter-spacing:5px;text-anchor:middle;fill:#000000"/>
		<path d="m 627.86843,199.02924 24.88889,0 0,30.97076 17.59064,0 0,-77.19298 -17.59064,0 0,30.78362 -24.88889,0 0,-30.78362 -17.59065,0 0,77.19298 17.59065,0 0,-30.97076 z" style="font-size:93.56725311px;font-family:'League Spartan';letter-spacing:5px;text-anchor:middle;fill:#000000"/>
		<path d="m 677.1155,168.24561 18.33919,0 0,61.75439 17.59064,0 0,-61.75439 18.33918,0 0,-15.43859 -54.26901,0 0,15.43859 z" style="font-size:93.56725311px;font-family:'League Spartan';letter-spacing:5px;text-anchor:middle;fill:#000000"/>
		<path d="m 734.29826,152.80702 28.44445,42.5731 0,34.61988 17.59064,0 0,-34.61988 28.44444,-42.5731 -21.1462,0 -16.09356,24.70175 -16.09357,-24.70175 -21.1462,0 z" style="font-size:93.56725311px;font-family:'League Spartan';letter-spacing:5px;text-anchor:middle;fill:#000000"/>
		<path d="m 847.2003,152.80702 0,77.19298 22.36257,0 c 21.23977,0 38.92398,-16.09357 38.92398,-38.64328 0,-22.45614 -17.77778,-38.5497 -38.92398,-38.5497 l -22.36257,0 z m 17.59064,61.47368 0,-45.75439 2.71345,0 c 13.09942,0 21.98831,10.0117 21.98831,22.92398 -0.0936,12.91228 -8.98246,22.83041 -21.98831,22.83041 l -2.71345,0 z" style="font-size:93.56725311px;font-family:'League Spartan';letter-spacing:5px;text-anchor:middle;fill:#000000"/>
		<path d="m 960.4839,152.80702 -16.2807,0 L 913.0453,230 l 18.90059,0 5.7076,-15.4386 29.38012,0 5.7076,15.4386 18.90058,0 -31.15789,-77.19298 z m 0.5614,46.31579 -17.40351,0 8.60819,-22.45614 0.18713,0 8.60819,22.45614 z" style="font-size:93.56725311px;font-family:'League Spartan';letter-spacing:5px;text-anchor:middle;fill:#000000"/>
		<path d="m 982.7339,152.80702 28.4444,42.5731 0,34.61988 17.5907,0 0,-34.61988 28.4444,-42.5731 -21.1462,0 -16.0935,24.70175 -16.0936,-24.70175 -21.1462,0 z" style="font-size:93.56725311px;font-family:'League Spartan';letter-spacing:5px;text-anchor:middle;fill:#000000"/>
		<path d="m 1088.9269,151.40351 c -12.4444,0 -25.1696,9.16959 -25.1696,23.57895 0,8.04678 5.4269,15.25146 14.6901,19.83625 9.1696,4.5848 17.4035,7.11111 17.4035,12.72515 0,7.20468 -7.2983,7.57895 -11.1345,7.57895 -8.6082,0 -18.9006,-8.70176 -18.9006,-8.70176 l -8.7953,14.78363 c 0,0 10.9473,10.19883 29.0058,10.19883 15.0644,0 29.0994,-6.45614 29.0994,-24.88889 0,-10.10526 -9.4503,-17.40351 -18.0584,-21.05263 -8.7954,-3.74269 -16.0936,-6.83041 -16.0936,-11.13451 0,-4.21052 3.1813,-6.92397 9.1696,-6.92397 7.9532,0 15.6257,5.33333 15.6257,5.33333 l 7.1111,-14.03509 c 0,0 -9.9181,-7.29824 -23.9532,-7.29824 z" style="font-size:93.56725311px;font-family:'League Spartan';letter-spacing:5px;text-anchor:middle;fill:#000000"/>
	</g>
	<g style="font-size:70.17543793px;font-family:'League Spartan';letter-spacing:5px;text-anchor:middle;fill:#000000">
		<path d="m 469.20614,332.10526 -13.19298,0 0,38.17544 c 0,5.82456 -2.87719,8.14035 -6.66667,8.14035 -3.36842,0 -7.50877,-3.92982 -7.50877,-3.92982 l -4.21052,11.01754 c 0,0 5.26315,5.54386 13.54385,5.54386 11.57895,0 18.03509,-6.03509 18.03509,-17.40351 l 0,-41.54386 z" style="font-size:70.17543793px;font-family:'League Spartan';letter-spacing:5px;text-anchor:middle;fill:#000000"/>
		<path d="m 526.39912,332.10526 -13.19298,0 0,33.47369 c 0,9.68421 -2.94737,12.49123 -9.40351,12.49123 -6.45614,0 -9.4035,-2.80702 -9.4035,-12.49123 l 0,-33.47369 -13.19299,0 0,37.33334 c 0,14.31579 7.85965,21.61403 22.59649,21.61403 14.73685,0 22.59649,-7.29824 22.59649,-21.61403 l 0,-37.33334 z" style="font-size:70.17543793px;font-family:'League Spartan';letter-spacing:5px;text-anchor:middle;fill:#000000"/>
		<path d="m 552.32127,332.10526 -13.19298,0 0,57.89474 33.1228,0 0,-11.57895 -19.92982,0 0,-46.31579 z" style="font-size:70.17543793px;font-family:'League Spartan';letter-spacing:5px;text-anchor:middle;fill:#000000"/>
		<path d="m 616.86184,332.10526 -33.1228,0 0,57.89474 33.1228,0 0,-11.57895 -19.92982,0 0,-11.64912 19.08772,0 0,-11.57895 -19.08772,0 0,-11.50877 19.92982,0 0,-11.57895 z" style="font-size:70.17543793px;font-family:'League Spartan';letter-spacing:5px;text-anchor:middle;fill:#000000"/>
		<path d="m 650.7796,331.05263 c -9.33333,0 -18.87719,6.8772 -18.87719,17.68421 0,6.03509 4.07017,11.4386 11.01754,14.8772 6.87719,3.43859 13.05263,5.33333 13.05263,9.54385 0,5.40351 -5.47368,5.68422 -8.35088,5.68422 -6.45614,0 -14.17543,-6.52632 -14.17543,-6.52632 l -6.5965,11.08772 c 0,0 8.21053,7.64912 21.75439,7.64912 11.29825,0 21.82456,-4.8421 21.82456,-18.66666 0,-7.57895 -7.08772,-13.05264 -13.54386,-15.78948 -6.59649,-2.80702 -12.07017,-5.12281 -12.07017,-8.35088 0,-3.15789 2.38596,-5.19298 6.87719,-5.19298 5.96491,0 11.7193,4 11.7193,4 l 5.33333,-10.52631 c 0,0 -7.4386,-5.47369 -17.96491,-5.47369 z" style="font-size:70.17543793px;font-family:'League Spartan';letter-spacing:5px;text-anchor:middle;fill:#000000"/>
		<path d="m 717.85855,390 10.38597,0 24.2807,-57.89474 -14.8772,0 -14.59649,38.03509 -14.59649,-38.03509 -14.87719,0 L 717.85855,390 Z" style="font-size:70.17543793px;font-family:'League Spartan';letter-spacing:5px;text-anchor:middle;fill:#000000"/>
		<path d="m 792.83772,332.10526 -33.12281,0 0,57.89474 33.12281,0 0,-11.57895 -19.92983,0 0,-11.64912 19.08772,0 0,-11.57895 -19.08772,0 0,-11.50877 19.92983,0 0,-11.57895 z" style="font-size:70.17543793px;font-family:'League Spartan';letter-spacing:5px;text-anchor:middle;fill:#000000"/>
		<path d="m 805.42216,332.10526 0,57.89474 13.19298,0 0,-22.87719 17.68421,22.87719 16.77193,0 -19.92983,-23.92982 c 7.08772,-2.24562 11.85965,-8.07018 11.85965,-16.77193 0,-11.36842 -8.14035,-17.19299 -18.87719,-17.19299 l -20.70175,0 z m 13.19298,25.68421 0,-15.15789 1.54386,0 c 4.98245,0 10.94737,0.35088 10.94737,7.57895 0,7.22807 -5.96492,7.57894 -10.94737,7.57894 l -1.54386,0 z" style="font-size:70.17543793px;font-family:'League Spartan';letter-spacing:5px;text-anchor:middle;fill:#000000"/>
		<path d="m 873.91665,354.07018 0.14035,0 23.01755,35.92982 13.19298,0 0,-57.89474 -13.19298,0 0,35.92983 -0.14035,0 -23.01755,-35.92983 -13.19298,0 0,57.89474 13.19298,0 0,-35.92982 z" style="font-size:70.17543793px;font-family:'League Spartan';letter-spacing:5px;text-anchor:middle;fill:#000000"/>
		<path d="m 956.82347,332.10526 -33.12281,0 0,57.89474 33.12281,0 0,-11.57895 -19.92983,0 0,-11.64912 19.08772,0 0,-11.57895 -19.08772,0 0,-11.50877 19.92983,0 0,-11.57895 z" style="font-size:70.17543793px;font-family:'League Spartan';letter-spacing:5px;text-anchor:middle;fill:#000000"/>
	</g>
	<g style="font-style:italic;font-size:42.5079689px;font-family:'OFL Sorts Mill Goudy';text-anchor:middle;fill:#000000">
		<path d="m 594.75525,553.42189 c 0,1.19023 2.50797,0.25505 2.50797,1.14772 0,1.14771 -1.78533,8.034 -1.78533,11.94474 0,3.31562 1.57279,3.99575 2.72051,3.99575 2.63549,0 6.24867,-2.89055 6.24867,-3.99575 0,-0.59512 -0.34007,-0.59512 -0.46759,-0.59512 -0.68013,0 -1.65781,1.87036 -3.99575,1.87036 -0.17003,0 -1.74283,-0.085 -1.74283,-2.33794 0,-0.68013 0.97769,-6.20617 1.36026,-8.84166 0.25505,-1.74283 0.12752,-2.50797 1.36025,-2.50797 0.93518,0 2.76302,0.21254 3.44315,0.21254 0.76514,0 1.02019,-0.25505 1.02019,-1.23273 0,-0.5101 -0.21254,-0.80765 -1.10521,-0.80765 -0.46758,0 -0.80765,0.0425 -2.46546,0.0425 -1.40276,0 -1.48778,-0.0425 -1.48778,-0.29755 0,-0.63762 0.76515,-2.63549 0.76515,-3.1881 0,-0.38257 -0.21254,-0.51009 -0.42508,-0.51009 -0.68013,0 -0.76515,0.5526 -2.46547,2.33793 -1.87035,1.95537 -3.48565,1.91286 -3.48565,2.76302 z" style="font-style:italic;font-size:42.5079689px;font-family:'OFL Sorts Mill Goudy';text-anchor:middle;fill:#000000"/>
		<path d="m 606.86272,557.41764 c 0,0.59511 0.34006,0.72264 0.51009,0.72264 0.21254,0 0.34006,-0.12753 0.46759,-0.25505 0.25505,-0.29756 0.59511,-2.84804 2.33794,-2.84804 0.76514,0 1.44527,0.76515 1.44527,2.89055 0,3.18809 -1.82784,9.43677 -1.82784,11.13708 0,1.0202 0.85015,1.10521 1.27523,1.10521 l 0.21254,0 c 1.53029,0 1.44528,0 2.38045,-7.22635 l 0.21254,-1.40277 c 0.21254,-1.78533 1.27524,-7.35387 3.1881,-7.35387 1.53028,0 1.36025,1.78533 2.29543,1.78533 0.76514,0 0.85016,-1.31775 0.93517,-1.6153 0.12753,-0.46759 0.46759,-1.02019 0.46759,-1.5728 0,-0.59511 -0.46759,-1.31774 -1.57279,-1.31774 -3.14559,0 -5.27099,4.37832 -5.56855,4.37832 -0.085,0 -0.12752,-0.0425 -1.19022,-2.80553 -0.25505,-0.68013 -0.68013,-1.48778 -1.5728,-1.48778 -0.38257,0 -3.99574,1.02019 -3.99574,5.8661 z" style="font-style:italic;font-size:42.5079689px;font-family:'OFL Sorts Mill Goudy';text-anchor:middle;fill:#000000"/>
		<path d="m 620.45398,565.15409 c 0,2.76302 0.51009,5.48353 4.54835,5.48353 4.03826,0 7.56642,-5.10096 7.77896,-5.10096 0.29755,0 -0.085,4.7609 2.63549,4.7609 1.14772,0 3.06057,-1.95537 4.12327,-3.48566 0.55261,-0.76514 0.76515,-1.40276 0.76515,-1.82784 0,-0.17003 -0.0425,-0.46759 -0.38257,-0.46759 -0.80766,0 -1.70032,2.76302 -3.10309,2.76302 -0.80765,0 -1.44527,-1.40276 -1.44527,-2.50797 0,-1.6153 0.42508,-3.57067 0.76515,-5.44102 0.34006,-1.91286 0.59511,-3.86823 0.97768,-5.44102 0.29756,-1.23273 0.85016,-2.25292 0.85016,-2.93305 0,-0.46759 -0.21254,-0.63762 -0.46759,-0.63762 -0.85016,0 -1.36025,2.08289 -2.21041,2.08289 -1.40277,0 -2.29543,-0.46759 -3.61318,-0.46759 -1.10521,0 -1.95537,0.21254 -3.10308,0.76515 -2.25292,1.0627 -4.20829,3.10308 -5.73858,5.52603 -1.31775,2.1254 -2.38044,4.54836 -2.38044,6.9288 z m 2.97555,-0.25505 c 0,-0.76514 0.085,-1.53028 0.21254,-2.29543 0.38258,-2.21041 1.40277,-4.12327 2.6355,-6.16365 1.27524,-2.16791 3.52816,-3.44315 5.27099,-3.44315 0.89266,0 2.80552,0.29756 2.80552,1.48778 0,0.12753 -1.14771,7.94899 -2.1679,9.98937 -0.38258,0.76515 -2.38045,3.82572 -5.44102,3.82572 -1.78534,0 -3.31563,-1.27524 -3.31563,-3.40064 z" style="font-style:italic;font-size:42.5079689px;font-family:'OFL Sorts Mill Goudy';text-anchor:middle;fill:#000000"/>
		<path d="m 641.69999,556.35494 c 0,0.46759 0.085,0.80765 0.38257,0.80765 0.93518,0 1.40277,-2.38044 2.72051,-2.38044 0.42508,0 0.97769,0.85016 0.97769,2.33794 0,3.27311 -1.87036,9.86184 -1.87036,11.64718 0,1.23273 0.34007,1.31775 1.48778,1.31775 1.10521,0 1.44527,-0.17004 1.5728,-1.10521 0.085,-0.59511 -0.21254,-0.085 0.85016,-5.82359 1.02019,-5.48353 0.51009,-5.10096 2.33794,-7.69395 0.97768,-1.40276 1.78533,-1.87035 2.76301,-1.87035 2.76302,0 2.97556,2.80553 2.97556,3.48566 0,1.57279 -0.89267,7.26886 -0.89267,10.49947 0,1.48777 0.72264,2.678 1.5728,2.678 1.87035,0 5.61105,-2.97556 5.61105,-4.63337 0,-0.25505 -0.085,-0.5101 -0.38257,-0.5101 -0.63762,0 -0.80765,0.5101 -1.31775,1.14772 0,0 -0.97768,0.93517 -1.70032,0.93517 -0.46758,0 -0.80765,-0.34006 -0.80765,-1.53028 0,-1.44527 0.72264,-5.95112 0.72264,-8.92668 0,-2.678 -0.59511,-5.31349 -3.57067,-5.31349 -1.78534,0 -4.03826,1.53028 -5.18597,2.42295 -1.5728,1.19022 -1.87035,2.1254 -2.1254,2.1254 -0.38257,0 0.51009,-4.46334 -1.95537,-4.46334 -1.6153,0 -4.16578,3.1881 -4.16578,4.84591 z" style="font-style:italic;font-size:42.5079689px;font-family:'OFL Sorts Mill Goudy';text-anchor:middle;fill:#000000"/>
		<path d="m 663.65071,567.70457 c 0,2.25292 3.06057,2.80553 4.71838,2.80553 5.44102,0 6.63125,-4.03826 6.63125,-5.56855 0,-2.84803 -1.61531,-4.03826 -2.93305,-5.52603 -1.02019,-1.10521 -3.35813,-2.84804 -3.35813,-4.46334 0,-1.27524 0.63762,-2.25292 2.25292,-2.25292 1.65781,0 1.82784,2.38044 3.35813,2.38044 0.21254,0 1.6153,-0.12752 1.6153,-1.44527 0,-1.65781 -1.65781,-2.21041 -3.95324,-2.21041 -3.31562,0 -5.78108,1.95536 -5.78108,4.8034 0,2.55048 1.6153,3.65568 3.31562,5.39851 1.53029,1.53029 2.93305,2.76302 2.93305,4.76089 0,0.5101 -0.29756,2.72051 -3.40064,2.72051 -2.59299,0 -1.87035,-2.93305 -4.03826,-2.93305 -0.51009,0 -1.36025,0.21254 -1.36025,1.53029 z" style="font-style:italic;font-size:42.5079689px;font-family:'OFL Sorts Mill Goudy';text-anchor:middle;fill:#000000"/>
		<path d="m 678.75033,566.34431 c 0,3.99575 1.23273,3.99575 2.08289,3.99575 0.80765,0 2.59299,-0.85016 3.6982,-2.12539 1.02019,-1.19023 2.12539,-2.6355 2.12539,-3.06058 0,-0.42508 -0.21254,-0.68013 -0.51009,-0.68013 -1.10521,0 -1.53029,3.01807 -3.86823,3.01807 -0.5526,0 -0.68012,-0.21254 -0.68012,-1.65781 0,-1.44527 0.51009,-4.12327 1.23273,-9.13921 1.36025,-9.13922 0.63762,-7.56642 2.21041,-15.81297 0.12752,-0.80765 0.42508,-1.36025 0.42508,-1.95537 0,-0.42507 -0.21254,-0.68012 -0.89267,-0.68012 -1.1052,0 -2.04038,0.42508 -5.14346,0.63762 -0.5526,0.0425 -0.63762,0.38257 -0.63762,0.59511 0,0.46759 0.38257,0.59511 1.23273,0.59511 0.5101,0 0.59511,-0.0425 1.23273,-0.0425 0.63762,0 1.0627,0.34007 1.0627,0.85016 0,0.5101 -0.63762,4.33581 -1.36025,8.92667 -0.42508,2.72051 -0.63762,5.73858 -1.0202,8.41658 -0.085,0.68013 -1.19022,5.69607 -1.19022,8.11902 z" style="font-style:italic;font-size:42.5079689px;font-family:'OFL Sorts Mill Goudy';text-anchor:middle;fill:#000000"/>
		<path d="m 689.28036,565.15409 c 0,2.76302 0.51009,5.48353 4.54835,5.48353 4.03826,0 7.56642,-5.10096 7.77896,-5.10096 0.29755,0 -0.085,4.7609 2.63549,4.7609 1.14772,0 3.06058,-1.95537 4.12328,-3.48566 0.5526,-0.76514 0.76514,-1.40276 0.76514,-1.82784 0,-0.17003 -0.0425,-0.46759 -0.38257,-0.46759 -0.80765,0 -1.70032,2.76302 -3.10308,2.76302 -0.80766,0 -1.44528,-1.40276 -1.44528,-2.50797 0,-1.6153 0.42508,-3.57067 0.76515,-5.44102 0.34006,-1.91286 0.59511,-3.86823 0.97768,-5.44102 0.29756,-1.23273 0.85016,-2.25292 0.85016,-2.93305 0,-0.46759 -0.21254,-0.63762 -0.46759,-0.63762 -0.85016,0 -1.36025,2.08289 -2.21041,2.08289 -1.40276,0 -2.29543,-0.46759 -3.61318,-0.46759 -1.10521,0 -1.95537,0.21254 -3.10308,0.76515 -2.25292,1.0627 -4.20829,3.10308 -5.73858,5.52603 -1.31774,2.1254 -2.38044,4.54836 -2.38044,6.9288 z m 2.97556,-0.25505 c 0,-0.76514 0.085,-1.53028 0.21253,-2.29543 0.38258,-2.21041 1.40277,-4.12327 2.6355,-6.16365 1.27524,-2.16791 3.52816,-3.44315 5.27099,-3.44315 0.89266,0 2.80552,0.29756 2.80552,1.48778 0,0.12753 -1.14771,7.94899 -2.1679,9.98937 -0.38257,0.76515 -2.38045,3.82572 -5.44102,3.82572 -1.78534,0 -3.31562,-1.27524 -3.31562,-3.40064 z" style="font-style:italic;font-size:42.5079689px;font-family:'OFL Sorts Mill Goudy';text-anchor:middle;fill:#000000"/>
		<path d="m 711.15402,553.42189 c 0,1.19023 2.50797,0.25505 2.50797,1.14772 0,1.14771 -1.78533,8.034 -1.78533,11.94474 0,3.31562 1.57279,3.99575 2.72051,3.99575 2.63549,0 6.24867,-2.89055 6.24867,-3.99575 0,-0.59512 -0.34006,-0.59512 -0.46759,-0.59512 -0.68012,0 -1.65781,1.87036 -3.99575,1.87036 -0.17003,0 -1.74282,-0.085 -1.74282,-2.33794 0,-0.68013 0.97768,-6.20617 1.36025,-8.84166 0.25505,-1.74283 0.12753,-2.50797 1.36026,-2.50797 0.93517,0 2.76302,0.21254 3.44314,0.21254 0.76515,0 1.02019,-0.25505 1.02019,-1.23273 0,-0.5101 -0.21254,-0.80765 -1.1052,-0.80765 -0.46759,0 -0.80765,0.0425 -2.46547,0.0425 -1.40276,0 -1.48777,-0.0425 -1.48777,-0.29755 0,-0.63762 0.76514,-2.63549 0.76514,-3.1881 0,-0.38257 -0.21254,-0.51009 -0.42508,-0.51009 -0.68013,0 -0.76514,0.5526 -2.46546,2.33793 -1.87035,1.95537 -3.48566,1.91286 -3.48566,2.76302 z" style="font-style:italic;font-size:42.5079689px;font-family:'OFL Sorts Mill Goudy';text-anchor:middle;fill:#000000"/>
		<path d="m 723.40296,563.75133 c 0,3.78321 1.31775,6.75877 6.71626,6.75877 3.69819,0 7.39639,-2.97556 7.39639,-3.95325 0,-0.25504 -0.17003,-0.42508 -0.5101,-0.42508 -0.46759,0 -2.1679,1.82785 -4.59086,1.82785 -4.20829,0 -6.12115,-2.1254 -6.12115,-5.3135 0,-1.10521 0.12753,-1.74283 0.72264,-1.74283 3.99575,-0.0425 6.29118,-0.97768 6.67375,-1.14771 0.80765,-0.34006 4.12327,-2.08289 4.12327,-5.14346 0,-1.87036 -1.70032,-3.14559 -3.69819,-3.14559 -2.38045,0 -4.33581,0.76514 -5.90861,2.25292 -2.93305,2.72051 -4.8034,6.37619 -4.8034,10.03188 z m 3.48566,-4.42083 c 0,-0.5526 0.97768,-3.27311 2.25292,-4.59086 1.1052,-1.14772 2.42295,-1.99788 3.48565,-1.99788 0.72264,0 2.25292,0.38258 2.25292,1.99788 0,2.678 -3.48565,5.44102 -7.60892,5.44102 -0.29756,0 -0.38257,-0.5526 -0.38257,-0.85016 z" style="font-style:italic;font-size:42.5079689px;font-family:'OFL Sorts Mill Goudy';text-anchor:middle;fill:#000000"/>
		<path d="m 739.86816,564.6865 c 0,3.1881 1.48777,5.65356 5.10095,5.65356 4.20829,0 6.3762,-4.76089 6.75877,-4.76089 0.59511,0 -0.38257,4.76089 2.59299,4.76089 2.76301,0 5.44102,-4.2933 5.44102,-5.18597 0,-0.17003 -0.12753,-0.38257 -0.46759,-0.38257 -0.68013,0 -1.65781,2.63549 -3.52816,2.63549 -0.97769,0 -1.10521,-0.89266 -1.10521,-1.82784 0,-1.27524 0.42508,-3.95324 0.89267,-7.18385 2.38044,-17.38575 2.80552,-18.74601 2.80552,-19.85122 0,-0.38257 -0.29755,-0.72263 -0.68013,-0.72263 -1.14771,0 -0.89266,0.085 -3.27311,0.68013 -1.19022,0.29755 -2.678,0.12752 -2.678,0.85015 0,0.29756 0.25505,0.46759 0.68013,0.46759 0.0425,0 1.02019,-0.0425 1.48778,-0.0425 0.63762,0 1.23273,0.42508 1.23273,1.0627 0,0.29756 -1.40277,11.47715 -1.53029,11.47715 -1.19022,0 -2.04038,-0.5526 -3.14559,-0.5526 -5.05845,0 -10.58448,6.33369 -10.58448,12.92242 z m 2.97555,-1.19022 c 0,-4.46334 3.48566,-10.83953 7.39639,-10.83953 1.14772,0 2.84803,0.5526 2.84803,1.70032 0,1.70032 -0.63762,9.18172 -2.33793,11.30712 -1.10521,1.40276 -2.76302,2.21041 -4.29331,2.21041 -2.59299,0 -3.61318,-1.91286 -3.61318,-4.37832 z" style="font-style:italic;font-size:42.5079689px;font-family:'OFL Sorts Mill Goudy';text-anchor:middle;fill:#000000"/>
		<path d="m 771.07033,566.98193 c 0,2.46547 2.678,3.57067 5.18597,3.57067 6.58874,0 11.60468,-7.60892 11.60468,-13.39001 0,-2.76301 -1.48778,-5.39851 -4.67588,-5.39851 -4.88842,0 -6.88629,3.95324 -7.4814,3.95324 -0.085,0 -0.21254,-0.34006 -0.21254,-0.63762 0,-3.06057 2.72051,-15.72795 2.72051,-16.49309 0,-0.46759 -0.34007,-0.76514 -0.80765,-0.76514 -0.25505,0 -1.02019,0.25505 -2.67801,0.46759 -1.95536,0.25504 -3.14558,0.21254 -3.14558,1.06269 0,0.59512 0.34006,0.59512 0.80765,0.59512 0.63762,0 1.1052,-0.085 1.74282,-0.085 0.85016,0 1.0627,0.29756 1.0627,0.5101 0,1.02019 -0.25505,2.50797 -0.63762,4.33581 -0.63762,3.14559 -1.14771,7.26886 -1.91286,11.68969 -0.59511,3.44315 -1.57279,7.86397 -1.57279,10.58448 z m 2.80553,-0.51009 c 0,-0.42508 0.46758,-4.97343 1.70031,-8.33156 1.36026,-3.6982 4.12328,-4.12328 5.14347,-4.12328 2.33794,0 4.16578,1.95537 4.16578,4.33582 0,4.88841 -3.91073,11.00956 -7.73645,11.00956 -2.63549,0 -3.27311,-1.44527 -3.27311,-2.89054 z" style="font-style:italic;font-size:42.5079689px;font-family:'OFL Sorts Mill Goudy';text-anchor:middle;fill:#000000"/>
		<path d="m 789.50617,575.3135 c 0,1.95536 1.70032,2.50797 3.52816,2.50797 3.99575,0 6.71626,-4.84591 8.71414,-9.90436 2.50797,-6.33369 3.52816,-12.19979 3.52816,-14.11265 0,-1.31774 -0.72264,-2.25292 -1.65781,-2.25292 -1.02019,0 -1.44527,0.80765 -1.44527,1.5728 0,1.14771 1.0627,1.99787 1.0627,3.2306 0,2.84804 -0.93518,7.39639 -1.53029,7.39639 -0.46759,0 -4.50585,-12.07226 -8.62912,-12.07226 -2.59299,0 -3.44314,3.69819 -3.44314,5.48352 0,0.72264 0.17003,0.93518 0.42507,0.93518 1.27524,0 0.38258,-3.1881 2.84804,-3.1881 2.25292,0 6.9288,10.96706 6.9288,13.3475 0,1.61531 -2.80553,7.05633 -5.27099,7.05633 -1.95537,0 -1.99787,-1.40277 -3.69819,-1.40277 -0.72264,0 -1.36026,0.68013 -1.36026,1.40277 z" style="font-style:italic;font-size:42.5079689px;font-family:'OFL Sorts Mill Goudy';text-anchor:middle;fill:#000000"/>
	</g>
	<g style="font-size:46.78362656px;font-family:'League Spartan';letter-spacing:5px;text-anchor:middle;fill:#000000">
		<path d="m 333.91922,618.38596 -17.82456,0 0,6.78363 8.88889,0 c 0,4.72515 -4.16375,7.4386 -8.37427,7.4386 -5.4269,0 -9.82456,-5.33334 -9.82456,-11.88304 0,-6.69006 4.39766,-12.07018 9.82456,-12.07018 3.4152,0 6.36257,1.35673 8.60819,4.95906 l 5.75438,-6.31578 c -3.36842,-4.07018 -8.09357,-6.5965 -14.87719,-6.5965 -10.8538,0 -18.80702,8.93568 -18.80702,20.0234 0,11.04093 8.42105,19.9766 18.80702,19.9766 7.57895,0 15.7193,-4.16374 17.82456,-13.94152 l 0,-8.37427 z" style="font-size:46.78362656px;font-family:'League Spartan';letter-spacing:5px;text-anchor:middle;fill:#000000"/>
		<path d="m 364.8432,601.40351 -22.08187,0 0,38.59649 22.08187,0 0,-7.7193 -13.28655,0 0,-7.76608 12.72514,0 0,-7.7193 -12.72514,0 0,-7.67251 13.28655,0 0,-7.7193 z" style="font-size:46.78362656px;font-family:'League Spartan';letter-spacing:5px;text-anchor:middle;fill:#000000"/>
		<path d="m 373.16849,620.67836 c 0,11.27486 8.04679,20.02339 19.46199,20.02339 11.08772,0 19.41521,-8.74853 19.41521,-20.02339 0,-11.27485 -8.70176,-19.97661 -19.41521,-19.97661 -10.61988,0 -19.46199,8.70176 -19.46199,19.97661 z m 9.49708,0 c 0,-5.75438 3.18128,-11.50877 9.96491,-11.50877 6.83041,0 9.91813,5.75439 9.91813,11.50877 0,5.75439 -2.90059,11.50877 -9.91813,11.50877 -7.20468,0 -9.96491,-5.75438 -9.96491,-11.50877 z" style="font-size:46.78362656px;font-family:'League Spartan';letter-spacing:5px;text-anchor:middle;fill:#000000"/>
		<path d="m 420.92653,601.40351 0,38.59649 8.79532,0 0,-15.25146 11.78948,15.25146 11.18128,0 -13.28655,-15.95322 c 4.72515,-1.49707 7.90644,-5.38011 7.90644,-11.18128 0,-7.57895 -5.4269,-11.46199 -12.5848,-11.46199 l -13.80117,0 z m 8.79532,17.12281 0,-10.10527 1.02924,0 c 3.32164,0 7.29825,0.23392 7.29825,5.05263 0,4.81872 -3.97661,5.05264 -7.29825,5.05264 l -1.02924,0 z" style="font-size:46.78362656px;font-family:'League Spartan';letter-spacing:5px;text-anchor:middle;fill:#000000"/>
		<path d="m 494.36148,618.38596 -17.82456,0 0,6.78363 8.88889,0 c 0,4.72515 -4.16375,7.4386 -8.37427,7.4386 -5.4269,0 -9.82456,-5.33334 -9.82456,-11.88304 0,-6.69006 4.39766,-12.07018 9.82456,-12.07018 3.4152,0 6.36257,1.35673 8.60819,4.95906 l 5.75438,-6.31578 c -3.36842,-4.07018 -8.09357,-6.5965 -14.87719,-6.5965 -10.8538,0 -18.80702,8.93568 -18.80702,20.0234 0,11.04093 8.42105,19.9766 18.80702,19.9766 7.57895,0 15.7193,-4.16374 17.82456,-13.94152 l 0,-8.37427 z" style="font-size:46.78362656px;font-family:'League Spartan';letter-spacing:5px;text-anchor:middle;fill:#000000"/>
		<path d="m 525.28546,601.40351 -22.08187,0 0,38.59649 22.08187,0 0,-7.7193 -13.28655,0 0,-7.76608 12.72514,0 0,-7.7193 -12.72514,0 0,-7.67251 13.28655,0 0,-7.7193 z" style="font-size:46.78362656px;font-family:'League Spartan';letter-spacing:5px;text-anchor:middle;fill:#000000"/>
		<path d="m 585.04058,640 8.79532,0 -3.46199,-38.59649 -9.35673,0 -8.5614,22.269 -8.5614,-22.269 -9.35673,0 -3.46199,38.59649 8.79533,0 1.82456,-22.87719 0.23392,0 7.90643,22.64327 5.23976,0 7.90644,-22.64327 0.23392,0 L 585.04058,640 Z" style="font-size:46.78362656px;font-family:'League Spartan';letter-spacing:5px;text-anchor:middle;fill:#000000"/>
		<path d="m 621.96161,601.40351 -8.14035,0 L 598.24231,640 l 9.45029,0 2.85381,-7.7193 14.69005,0 2.85381,7.7193 9.45029,0 -15.57895,-38.59649 z m 0.2807,23.15789 -8.70175,0 4.30409,-11.22807 0.0936,0 4.30409,11.22807 z" style="font-size:46.78362656px;font-family:'League Spartan';letter-spacing:5px;text-anchor:middle;fill:#000000"/>
		<path d="m 679.13486,640 -17.96491,-20.30409 15.53216,-18.2924 -10.66667,0 -13.23976,15.76608 0,-15.76608 -8.79533,0 0,38.59649 8.79533,0 0,-16.37427 L 667.0179,640 l 12.11696,0 z" style="font-size:46.78362656px;font-family:'League Spartan';letter-spacing:5px;text-anchor:middle;fill:#000000"/>
		<path d="m 707.90608,601.40351 -22.08187,0 0,38.59649 22.08187,0 0,-7.7193 -13.28655,0 0,-7.76608 12.72514,0 0,-7.7193 -12.72514,0 0,-7.67251 13.28655,0 0,-7.7193 z" style="font-size:46.78362656px;font-family:'League Spartan';letter-spacing:5px;text-anchor:middle;fill:#000000"/>
		<path d="m 717.96236,601.40351 0,38.59649 8.79532,0 0,-14.31579 5.28655,0 c 7.53217,0 13.19298,-4.44444 13.19298,-12.39766 0,-8 -5.66081,-11.88304 -13.19298,-11.88304 l -14.08187,0 z m 8.79532,17.26316 0,-10.24562 2.47953,0 c 3.46199,0 6.73685,1.16959 6.73685,5.1462 0,3.92983 -3.27486,5.09942 -6.73685,5.09942 l -2.47953,0 z" style="font-size:46.78362656px;font-family:'League Spartan';letter-spacing:5px;text-anchor:middle;fill:#000000"/>
		<path d="m 776.20286,601.40351 -22.08187,0 0,38.59649 22.08187,0 0,-7.7193 -13.28655,0 0,-7.76608 12.72515,0 0,-7.7193 -12.72515,0 0,-7.67251 13.28655,0 0,-7.7193 z" style="font-size:46.78362656px;font-family:'League Spartan';letter-spacing:5px;text-anchor:middle;fill:#000000"/>
		<path d="m 806.13559,601.40351 -8.14035,0 L 782.41629,640 l 9.4503,0 2.8538,-7.7193 14.69006,0 2.8538,7.7193 9.45029,0 -15.57895,-38.59649 z m 0.2807,23.15789 -8.70175,0 4.30409,-11.22807 0.0936,0 4.30409,11.22807 z" style="font-size:46.78362656px;font-family:'League Spartan';letter-spacing:5px;text-anchor:middle;fill:#000000"/>
		<path d="m 847.25037,632.04678 c -8.8421,0 -12.72514,-6.17544 -12.72514,-11.36842 0,-5.1462 3.88304,-11.32164 12.72514,-11.32164 4.49123,0 7.57895,2.38597 7.57895,2.38597 l 3.74269,-7.48538 c 0,0 -4.30409,-3.55556 -12.67836,-3.55556 -10.94737,0 -20.91228,8.98246 -20.91228,20.07018 0,11.04094 10.01169,19.92982 20.91228,19.92982 8.37427,0 12.67836,-3.55555 12.67836,-3.55555 l -3.74269,-7.48538 c 0,0 -3.08772,2.38596 -7.57895,2.38596 z" style="font-size:46.78362656px;font-family:'League Spartan';letter-spacing:5px;text-anchor:middle;fill:#000000"/>
		<path d="m 889.06468,601.40351 -22.08187,0 0,38.59649 22.08187,0 0,-7.7193 -13.28655,0 0,-7.76608 12.72514,0 0,-7.7193 -12.72514,0 0,-7.67251 13.28655,0 0,-7.7193 z" style="font-size:46.78362656px;font-family:'League Spartan';letter-spacing:5px;text-anchor:middle;fill:#000000"/>
		<path d="m 912.1963,609.12281 9.16959,0 0,30.87719 8.79532,0 0,-30.87719 9.16959,0 0,-7.7193 -27.1345,0 0,7.7193 z" style="font-size:46.78362656px;font-family:'League Spartan';letter-spacing:5px;text-anchor:middle;fill:#000000"/>
		<path d="m 944.30522,620.67836 c 0,11.27486 8.04678,20.02339 19.46199,20.02339 11.08772,0 19.4152,-8.74853 19.4152,-20.02339 0,-11.27485 -8.70175,-19.97661 -19.4152,-19.97661 -10.61989,0 -19.46199,8.70176 -19.46199,19.97661 z m 9.49707,0 c 0,-5.75438 3.18129,-11.50877 9.96492,-11.50877 6.83041,0 9.91813,5.75439 9.91813,11.50877 0,5.75439 -2.90059,11.50877 -9.91813,11.50877 -7.20468,0 -9.96492,-5.75438 -9.96492,-11.50877 z" style="font-size:46.78362656px;font-family:'League Spartan';letter-spacing:5px;text-anchor:middle;fill:#000000"/>
		<path d="m 1020.2153,640 9.731,0 10.9942,-38.59649 -9.731,0 -6.5965,26.47953 -0.2339,0 -7.0176,-26.47953 -6.6433,0 -7.0175,26.47953 -0.2339,0 -6.59652,-26.47953 -9.77778,0 10.99416,38.59649 9.77774,0 6.1755,-21.66082 6.1754,21.66082 z" style="font-size:46.78362656px;font-family:'League Spartan';letter-spacing:5px;text-anchor:middle;fill:#000000"/>
		<path d="m 1056.8454,601.40351 -8.7953,0 0,38.59649 22.0818,0 0,-7.7193 -13.2865,0 0,-30.87719 z" style="font-size:46.78362656px;font-family:'League Spartan';letter-spacing:5px;text-anchor:middle;fill:#000000"/>
		<path d="m 1101.5391,601.40351 -22.0819,0 0,38.59649 22.0819,0 0,-7.7193 -13.2865,0 0,-7.76608 12.7251,0 0,-7.7193 -12.7251,0 0,-7.67251 13.2865,0 0,-7.7193 z" style="font-size:46.78362656px;font-family:'League Spartan';letter-spacing:5px;text-anchor:middle;fill:#000000"/>
	</g>
</svg>
