<?xml version="1.0" encoding="UTF-8"?>
<svg xmlns="http://www.w3.org/2000/svg" xmlns:se="https://standardebooks.org/vocab/1.0" version="1.1" viewBox="0 0 1400 690" se:generated-from="e69ffbf95052d7d0562fe2ef423f92d07766aa3a">
	<path d="M 194.00002,51.404756 177.71884,51.404756 146.56003,128.60001 165.46117,128.60001 171.16894,113.16096 200.54992,113.16096 206.25769,128.60001 225.15883,128.60001 194.00002,51.404756 Z M 194.56144,97.721906 177.15742,97.721906 185.76586,75.265106 185.953,75.265106 194.56144,97.721906 Z"/>
	<path d="M 233.07851,51.404756 233.07851,128.60001 250.66967,128.60001 250.66967,98.096186 274.24931,128.60001 296.61254,128.60001 270.03866,96.692636 C 279.48923,93.698396 285.85199,85.932086 285.85199,74.329406 285.85199,59.171066 274.99787,51.404756 260.68166,51.404756 L 233.07851,51.404756 Z M 250.66967,85.651376 250.66967,65.440256 252.72821,65.440256 C 259.37168,65.440256 267.32513,65.908106 267.32513,75.545816 267.32513,85.183526 259.37168,85.651376 252.72821,85.651376 L 250.66967,85.651376 Z"/>
	<path d="M 301.68711,89.955596 C 301.68711,112.50597 317.78115,130.00356 340.61223,130.00356 362.78832,130.00356 379.44378,112.50597 379.44378,89.955596 379.44378,67.405226 362.03976,50.001206 340.61223,50.001206 319.37184,50.001206 301.68711,67.405226 301.68711,89.955596 Z M 320.68182,89.955596 C 320.68182,78.446486 327.04458,66.937376 340.61223,66.937376 354.27345,66.937376 360.44907,78.446486 360.44907,89.955596 360.44907,101.46471 354.64773,112.97382 340.61223,112.97382 326.20245,112.97382 320.68182,101.46471 320.68182,89.955596 Z"/>
	<path d="M 451.52907,51.404756 433.93791,51.404756 433.93791,96.037646 C 433.93791,108.95031 430.00797,112.69311 421.39953,112.69311 412.79109,112.69311 408.86115,108.95031 408.86115,96.037646 L 408.86115,51.404756 391.26999,51.404756 391.26999,101.184 C 391.26999,120.27228 401.74983,130.00356 421.39953,130.00356 441.04923,130.00356 451.52907,120.27228 451.52907,101.184 L 451.52907,51.404756 Z"/>
	<path d="M 484.42609,80.692166 484.61323,80.692166 515.30419,128.60001 532.89535,128.60001 532.89535,51.404756 515.30419,51.404756 515.30419,99.312596 515.11705,99.312596 484.42609,51.404756 466.83493,51.404756 466.83493,128.60001 484.42609,128.60001 484.42609,80.692166 Z"/>
	<path d="M 549.13983,51.404756 549.13983,128.60001 571.50306,128.60001 C 592.74345,128.60001 610.42818,112.50597 610.42818,89.955596 610.42818,67.498796 592.64988,51.404756 571.50306,51.404756 L 549.13983,51.404756 Z M 566.73099,112.88025 566.73099,67.124516 569.44452,67.124516 C 582.54432,67.124516 591.43347,77.136506 591.43347,90.049166 591.3399,102.96183 582.45075,112.88025 569.44452,112.88025 L 566.73099,112.88025 Z"/>
	<path d="M 644.37188,66.843806 662.7116,66.843806 662.7116,128.60001 680.30276,128.60001 680.30276,66.843806 698.64248,66.843806 698.64248,51.404756 644.37188,51.404756 644.37188,66.843806 Z"/>
	<path d="M 727.56864,97.628336 752.45826,97.628336 752.45826,128.60001 770.04942,128.60001 770.04942,51.404756 752.45826,51.404756 752.45826,82.189286 727.56864,82.189286 727.56864,51.404756 709.97748,51.404756 709.97748,128.60001 727.56864,128.60001 727.56864,97.628336 Z"/>
	<path d="M 830.41651,51.404756 786.25147,51.404756 786.25147,128.60001 830.41651,128.60001 830.41651,113.16096 803.84263,113.16096 803.84263,97.628336 829.29367,97.628336 829.29367,82.189286 803.84263,82.189286 803.84263,66.843806 830.41651,66.843806 830.41651,51.404756 Z"/>
	<path d="M 927.48634,128.60001 946.9489,128.60001 968.93785,51.404756 949.47529,51.404756 936.28192,104.36538 935.81407,104.36538 921.77857,51.404756 908.49163,51.404756 894.45613,104.36538 893.98828,104.36538 880.79491,51.404756 861.23878,51.404756 883.22773,128.60001 902.78386,128.60001 915.1351,85.277096 927.48634,128.60001 Z"/>
	<path d="M 971.77113,89.955596 C 971.77113,112.50597 987.86517,130.00356 1010.6962,130.00356 1032.8723,130.00356 1049.5278,112.50597 1049.5278,89.955596 1049.5278,67.405226 1032.1238,50.001206 1010.6962,50.001206 989.45586,50.001206 971.77113,67.405226 971.77113,89.955596 Z M 990.76584,89.955596 C 990.76584,78.446486 997.1286,66.937376 1010.6962,66.937376 1024.3575,66.937376 1030.5331,78.446486 1030.5331,89.955596 1030.5331,101.46471 1024.7317,112.97382 1010.6962,112.97382 996.28647,112.97382 990.76584,101.46471 990.76584,89.955596 Z"/>
	<path d="M 1062.2897,51.404756 1062.2897,128.60001 1079.8808,128.60001 1079.8808,98.096186 1103.4605,128.60001 1125.8237,128.60001 1099.2498,96.692636 C 1108.7004,93.698396 1115.0632,85.932086 1115.0632,74.329406 1115.0632,59.171066 1104.209,51.404756 1089.8928,51.404756 L 1062.2897,51.404756 Z M 1079.8808,85.651376 1079.8808,65.440256 1081.9394,65.440256 C 1088.5828,65.440256 1096.5363,65.908106 1096.5363,75.545816 1096.5363,85.183526 1088.5828,85.651376 1081.9394,85.651376 L 1079.8808,85.651376 Z"/>
	<path d="M 1151.9515,51.404756 1134.3604,51.404756 1134.3604,128.60001 1178.5254,128.60001 1178.5254,113.16096 1151.9515,113.16096 1151.9515,51.404756 Z"/>
	<path d="M 1192.1763,51.404756 1192.1763,128.60001 1214.5395,128.60001 C 1235.7799,128.60001 1253.4646,112.50597 1253.4646,89.955596 1253.4646,67.498796 1235.6863,51.404756 1214.5395,51.404756 L 1192.1763,51.404756 Z M 1209.7674,112.88025 1209.7674,67.124516 1212.481,67.124516 C 1225.5808,67.124516 1234.4699,77.136506 1234.4699,90.049166 1234.3763,102.96183 1225.4872,112.88025 1212.481,112.88025 L 1209.7674,112.88025 Z"/>
	<path d="M 303.96537,151.40476 286.37421,151.40476 286.37421,228.60001 303.96537,228.60001 303.96537,151.40476 Z"/>
	<path d="M 337.84048,180.69217 338.02762,180.69217 368.71858,228.60001 386.30974,228.60001 386.30974,151.40476 368.71858,151.40476 368.71858,199.3126 368.53144,199.3126 337.84048,151.40476 320.24932,151.40476 320.24932,228.60001 337.84048,228.60001 337.84048,180.69217 Z"/>
	<path d="M 477.30481,151.40476 433.13977,151.40476 433.13977,228.60001 477.30481,228.60001 477.30481,213.16096 450.73093,213.16096 450.73093,197.62834 476.18197,197.62834 476.18197,182.18929 450.73093,182.18929 450.73093,166.84381 477.30481,166.84381 477.30481,151.40476 Z"/>
	<path d="M 510.00884,151.40476 492.41768,151.40476 492.41768,228.60001 510.00884,228.60001 510.00884,151.40476 Z"/>
	<path d="M 596.09602,185.37067 560.44585,185.37067 560.44585,198.93832 578.22415,198.93832 C 578.22415,208.38889 569.89642,213.81595 561.47512,213.81595 550.621,213.81595 541.82542,203.14897 541.82542,190.04917 541.82542,176.66866 550.621,165.90811 561.47512,165.90811 568.30573,165.90811 574.20064,168.62164 578.692,175.82653 L 590.20111,163.19458 C 583.46407,155.05399 574.0135,150.00121 560.44585,150.00121 538.73761,150.00121 522.83071,167.87308 522.83071,190.04917 522.83071,212.13169 539.67331,230.00356 560.44585,230.00356 575.60419,230.00356 591.88537,221.67583 596.09602,202.1197 L 596.09602,185.37067 Z"/>
	<path d="M 626.37162,197.62834 651.26124,197.62834 651.26124,228.60001 668.8524,228.60001 668.8524,151.40476 651.26124,151.40476 651.26124,182.18929 626.37162,182.18929 626.37162,151.40476 608.78046,151.40476 608.78046,228.60001 626.37162,228.60001 626.37162,197.62834 Z"/>
	<path d="M 675.61999,166.84381 693.95971,166.84381 693.95971,228.60001 711.55087,228.60001 711.55087,166.84381 729.89059,166.84381 729.89059,151.40476 675.61999,151.40476 675.61999,166.84381 Z"/>
	<path d="M 732.80426,151.40476 761.24954,193.97911 761.24954,228.60001 778.8407,228.60001 778.8407,193.97911 807.28598,151.40476 786.13916,151.40476 770.04512,176.10724 753.95108,151.40476 732.80426,151.40476 Z"/>
	<path d="M 845.70935,151.40476 845.70935,228.60001 868.07258,228.60001 C 889.31297,228.60001 906.9977,212.50597 906.9977,189.9556 906.9977,167.4988 889.2194,151.40476 868.07258,151.40476 L 845.70935,151.40476 Z M 863.30051,212.88025 863.30051,167.12452 866.01404,167.12452 C 879.11384,167.12452 888.00299,177.13651 888.00299,190.04917 887.90942,202.96183 879.02027,212.88025 866.01404,212.88025 L 863.30051,212.88025 Z"/>
	<path d="M 958.99618,151.40476 942.715,151.40476 911.55619,228.60001 930.45733,228.60001 936.1651,213.16096 965.54608,213.16096 971.25385,228.60001 990.15499,228.60001 958.99618,151.40476 Z M 959.5576,197.72191 942.15358,197.72191 950.76202,175.26511 950.94916,175.26511 959.5576,197.72191 Z"/>
	<path d="M 981.24667,151.40476 1009.692,193.97911 1009.692,228.60001 1027.2831,228.60001 1027.2831,193.97911 1055.7284,151.40476 1034.5816,151.40476 1018.4875,176.10724 1002.3935,151.40476 981.24667,151.40476 Z"/>
	<path d="M 1087.4426,150.00121 C 1074.9978,150.00121 1062.2723,159.17107 1062.2723,173.58085 1062.2723,181.62787 1067.6993,188.83276 1076.9628,193.41769 1086.1326,198.00262 1094.3668,200.52901 1094.3668,206.14321 1094.3668,213.3481 1087.0683,213.72238 1083.2319,213.72238 1074.6235,213.72238 1064.3308,205.02037 1064.3308,205.02037 L 1055.5352,219.80443 C 1055.5352,219.80443 1066.4829,230.00356 1084.5419,230.00356 1099.6067,230.00356 1113.6422,223.54723 1113.6422,205.11394 1113.6422,195.00838 1104.1916,187.70992 1095.5832,184.06069 1086.7876,180.31789 1079.4891,177.23008 1079.4891,172.92586 1079.4891,168.71521 1082.6705,166.00168 1088.659,166.00168 1096.6125,166.00168 1104.2852,171.33517 1104.2852,171.33517 L 1111.3965,157.29967 C 1111.3965,157.29967 1101.4781,150.00121 1087.4426,150.00121 Z"/>
	<path d="M 471.91543,331.05151 458.72159,331.05151 458.72159,369.22943 C 458.72159,375.05437 455.84421,377.37031 452.05449,377.37031 448.68585,377.37031 444.54523,373.44023 444.54523,373.44023 L 440.33443,384.45849 C 440.33443,384.45849 445.59793,390.00271 453.87917,390.00271 465.45887,390.00271 471.91543,383.96723 471.91543,372.59807 L 471.91543,331.05151 Z"/>
	<path d="M 529.1118,331.05151 515.91796,331.05151 515.91796,364.52737 C 515.91796,374.21221 512.9704,377.01941 506.51384,377.01941 500.05728,377.01941 497.10972,374.21221 497.10972,364.52737 L 497.10972,331.05151 483.91588,331.05151 483.91588,368.38727 C 483.91588,382.70399 491.77604,390.00271 506.51384,390.00271 521.25164,390.00271 529.1118,382.70399 529.1118,368.38727 L 529.1118,331.05151 Z"/>
	<path d="M 555.03532,331.05151 541.84148,331.05151 541.84148,388.95001 574.96644,388.95001 574.96644,377.37031 555.03532,377.37031 555.03532,331.05151 Z"/>
	<path d="M 619.57975,331.05151 586.45479,331.05151 586.45479,388.95001 619.57975,388.95001 619.57975,377.37031 599.64863,377.37031 599.64863,365.72043 618.73759,365.72043 618.73759,354.14073 599.64863,354.14073 599.64863,342.63121 619.57975,342.63121 619.57975,331.05151 Z"/>
	<path d="M 653.49939,329.99881 C 644.16545,329.99881 634.62097,336.87645 634.62097,347.68417 634.62097,353.71965 638.69141,359.12351 645.63923,362.56233 652.51687,366.00115 658.69271,367.89601 658.69271,372.10681 658.69271,377.51067 653.21867,377.79139 650.34129,377.79139 643.88473,377.79139 636.16493,371.26465 636.16493,371.26465 L 629.56801,382.35309 C 629.56801,382.35309 637.77907,390.00271 651.32381,390.00271 662.62279,390.00271 673.14979,385.16029 673.14979,371.33483 673.14979,363.75539 666.06161,358.28135 659.60505,355.54433 653.00813,352.73713 647.53409,350.42119 647.53409,347.19291 647.53409,344.03481 649.92021,341.99959 654.41173,341.99959 660.37703,341.99959 666.13179,345.99985 666.13179,345.99985 L 671.46547,335.47285 C 671.46547,335.47285 664.02639,329.99881 653.49939,329.99881 Z"/>
	<path d="M 720.71913,388.95001 731.10577,388.95001 755.38805,331.05151 740.50989,331.05151 725.91245,369.08907 711.31501,331.05151 696.43685,331.05151 720.71913,388.95001 Z"/>
	<path d="M 795.70283,331.05151 762.57787,331.05151 762.57787,388.95001 795.70283,388.95001 795.70283,377.37031 775.77171,377.37031 775.77171,365.72043 794.86067,365.72043 794.86067,354.14073 775.77171,354.14073 775.77171,342.63121 795.70283,342.63121 795.70283,331.05151 Z"/>
	<path d="M 808.28777,331.05151 808.28777,388.95001 821.48161,388.95001 821.48161,366.07133 839.16697,388.95001 855.93999,388.95001 836.00887,365.01863 C 843.09705,362.77287 847.86929,356.94793 847.86929,348.24561 847.86929,336.87645 839.72841,331.05151 828.99087,331.05151 L 808.28777,331.05151 Z M 821.48161,356.73739 821.48161,341.57851 823.02557,341.57851 C 828.00835,341.57851 833.97365,341.92941 833.97365,349.15795 833.97365,356.38649 828.00835,356.73739 823.02557,356.73739 L 821.48161,356.73739 Z"/>
	<path d="M 876.78641,353.01785 876.92677,353.01785 899.94582,388.95001 913.13966,388.95001 913.13966,331.05151 899.94582,331.05151 899.94582,366.98367 899.80546,366.98367 876.78641,331.05151 863.59257,331.05151 863.59257,388.95001 876.78641,388.95001 876.78641,353.01785 Z"/>
	<path d="M 959.69828,331.05151 926.57332,331.05151 926.57332,388.95001 959.69828,388.95001 959.69828,377.37031 939.76716,377.37031 939.76716,365.72043 958.85612,365.72043 958.85612,354.14073 939.76716,354.14073 939.76716,342.63121 959.69828,342.63121 959.69828,331.05151 Z"/>
	<path d="M 334.50789,617.68578 316.68319,617.68578 316.68319,624.46946 325.57215,624.46946 C 325.57215,629.19464 321.40837,631.90812 317.19781,631.90812 311.77087,631.90812 307.37317,626.57474 307.37317,620.02498 307.37317,613.33487 311.77087,607.95471 317.19781,607.95471 320.61304,607.95471 323.56044,609.31144 325.80607,612.91381 L 331.5605,606.59797 C 328.19205,602.52776 323.46687,600.00143 316.68319,600.00143 305.8293,600.00143 297.87602,608.93717 297.87602,620.02498 297.87602,631.066 306.29714,640.00175 316.68319,640.00175 324.2622,640.00175 332.40261,635.83797 334.50789,626.06012 L 334.50789,617.68578 Z"/>
	<path d="M 365.43208,600.70319 343.35003,600.70319 343.35003,639.29999 365.43208,639.29999 365.43208,631.58063 352.14542,631.58063 352.14542,623.81448 364.87067,623.81448 364.87067,616.09512 352.14542,616.09512 352.14542,608.42255 365.43208,608.42255 365.43208,600.70319 Z"/>
	<path d="M 373.7574,619.9782 C 373.7574,631.25314 381.80425,640.00175 393.21954,640.00175 404.30735,640.00175 412.6349,631.25314 412.6349,619.9782 412.6349,608.70325 403.93308,600.00143 393.21954,600.00143 382.59957,600.00143 373.7574,608.70325 373.7574,619.9782 Z M 383.25455,619.9782 C 383.25455,614.22376 386.43586,608.46933 393.21954,608.46933 400.05001,608.46933 403.13775,614.22376 403.13775,619.9782 403.13775,625.73263 400.23714,631.48706 393.21954,631.48706 386.01481,631.48706 383.25455,625.73263 383.25455,619.9782 Z"/>
	<path d="M 421.51578,600.70319 421.51578,639.29999 430.31117,639.29999 430.31117,624.0484 442.10074,639.29999 453.28212,639.29999 439.99546,623.34664 C 444.72064,621.84956 447.90196,617.96648 447.90196,612.16527 447.90196,604.58626 442.47501,600.70319 435.31706,600.70319 L 421.51578,600.70319 Z M 430.31117,617.82613 430.31117,607.72079 431.34042,607.72079 C 434.66208,607.72079 438.63872,607.95471 438.63872,612.77346 438.63872,617.59221 434.66208,617.82613 431.34042,617.82613 L 430.31117,617.82613 Z"/>
	<path d="M 494.95127,617.68578 477.12656,617.68578 477.12656,624.46946 486.01552,624.46946 C 486.01552,629.19464 481.85175,631.90812 477.64119,631.90812 472.21424,631.90812 467.81655,626.57474 467.81655,620.02498 467.81655,613.33487 472.21424,607.95471 477.64119,607.95471 481.05642,607.95471 484.00381,609.31144 486.24944,612.91381 L 492.00387,606.59797 C 488.63543,602.52776 483.91024,600.00143 477.12656,600.00143 466.27267,600.00143 458.31939,608.93717 458.31939,620.02498 458.31939,631.066 466.74051,640.00175 477.12656,640.00175 484.70557,640.00175 492.84599,635.83797 494.95127,626.06012 L 494.95127,617.68578 Z"/>
	<path d="M 525.87545,600.70319 503.7934,600.70319 503.7934,639.29999 525.87545,639.29999 525.87545,631.58063 512.58879,631.58063 512.58879,623.81448 525.31404,623.81448 525.31404,616.09512 512.58879,616.09512 512.58879,608.42255 525.87545,608.42255 525.87545,600.70319 Z"/>
	<path d="M 585.63096,639.29999 594.42636,639.29999 590.96434,600.70319 581.60754,600.70319 573.04607,622.97237 564.4846,600.70319 555.1278,600.70319 551.66578,639.29999 560.46117,639.29999 562.28575,616.42261 562.51967,616.42261 570.42616,639.06607 575.66597,639.06607 583.57247,616.42261 583.80639,616.42261 585.63096,639.29999 Z"/>
	<path d="M 622.55227,600.70319 614.41185,600.70319 598.83278,639.29999 608.28315,639.29999 611.13697,631.58063 625.82715,631.58063 628.68097,639.29999 638.13134,639.29999 622.55227,600.70319 Z M 622.83297,623.86127 614.13115,623.86127 618.43527,612.63311 618.52884,612.63311 622.83297,623.86127 Z"/>
	<path d="M 679.72594,639.29999 661.76089,618.99573 677.29317,600.70319 666.62642,600.70319 653.38655,616.4694 653.38655,600.70319 644.59116,600.70319 644.59116,639.29999 653.38655,639.29999 653.38655,622.92559 667.60889,639.29999 679.72594,639.29999 Z"/>
	<path d="M 708.49733,600.70319 686.41529,600.70319 686.41529,639.29999 708.49733,639.29999 708.49733,631.58063 695.21068,631.58063 695.21068,623.81448 707.93593,623.81448 707.93593,616.09512 695.21068,616.09512 695.21068,608.42255 708.49733,608.42255 708.49733,600.70319 Z"/>
	<path d="M 718.55365,600.70319 718.55365,639.29999 727.34904,639.29999 727.34904,624.98408 732.63564,624.98408 C 740.16786,624.98408 745.82872,620.5396 745.82872,612.58632 745.82872,604.58626 740.16786,600.70319 732.63564,600.70319 L 718.55365,600.70319 Z M 727.34904,617.96648 727.34904,607.72079 729.8286,607.72079 C 733.29061,607.72079 736.56549,608.89039 736.56549,612.86703 736.56549,616.79688 733.29061,617.96648 729.8286,617.96648 L 727.34904,617.96648 Z"/>
	<path d="M 776.79458,600.70319 754.71253,600.70319 754.71253,639.29999 776.79458,639.29999 776.79458,631.58063 763.50792,631.58063 763.50792,623.81448 776.23317,623.81448 776.23317,616.09512 763.50792,616.09512 763.50792,608.42255 776.79458,608.42255 776.79458,600.70319 Z"/>
	<path d="M 806.72753,600.70319 798.58711,600.70319 783.00804,639.29999 792.45841,639.29999 795.31223,631.58063 810.00241,631.58063 812.85623,639.29999 822.3066,639.29999 806.72753,600.70319 Z M 807.00823,623.86127 798.30641,623.86127 802.61054,612.63311 802.70411,612.63311 807.00823,623.86127 Z"/>
	<path d="M 847.84259,631.34671 C 839.00042,631.34671 835.11734,625.17122 835.11734,619.9782 835.11734,614.83196 839.00042,608.65647 847.84259,608.65647 852.33386,608.65647 855.4216,611.04245 855.4216,611.04245 L 859.16432,603.55701 C 859.16432,603.55701 854.86019,600.00143 846.48586,600.00143 835.5384,600.00143 825.57341,608.98396 825.57341,620.07176 825.57341,631.11279 835.58518,640.00175 846.48586,640.00175 854.86019,640.00175 859.16432,636.44616 859.16432,636.44616 L 855.4216,628.96072 C 855.4216,628.96072 852.33386,631.34671 847.84259,631.34671 Z"/>
	<path d="M 889.65722,600.70319 867.57517,600.70319 867.57517,639.29999 889.65722,639.29999 889.65722,631.58063 876.37056,631.58063 876.37056,623.81448 889.09581,623.81448 889.09581,616.09512 876.37056,616.09512 876.37056,608.42255 889.65722,608.42255 889.65722,600.70319 Z"/>
	<path d="M 912.78888,608.42255 921.95855,608.42255 921.95855,639.29999 930.75394,639.29999 930.75394,608.42255 939.9236,608.42255 939.9236,600.70319 912.78888,600.70319 912.78888,608.42255 Z"/>
	<path d="M 944.89805,619.9782 C 944.89805,631.25314 952.9449,640.00175 964.3602,640.00175 975.44801,640.00175 983.77556,631.25314 983.77556,619.9782 983.77556,608.70325 975.07373,600.00143 964.3602,600.00143 953.74023,600.00143 944.89805,608.70325 944.89805,619.9782 Z M 954.39521,619.9782 C 954.39521,614.22376 957.57652,608.46933 964.3602,608.46933 971.19066,608.46933 974.27841,614.22376 974.27841,619.9782 974.27841,625.73263 971.3778,631.48706 964.3602,631.48706 957.15546,631.48706 954.39521,625.73263 954.39521,619.9782 Z"/>
	<path d="M 1020.8087,639.29999 1030.5398,639.29999 1041.534,600.70319 1031.8029,600.70319 1025.2064,627.18293 1024.9725,627.18293 1017.9549,600.70319 1011.3116,600.70319 1004.294,627.18293 1004.06,627.18293 997.46349,600.70319 987.68563,600.70319 998.67987,639.29999 1008.4577,639.29999 1014.6332,617.639 1020.8087,639.29999 Z"/>
	<path d="M 1057.439,600.70319 1048.6436,600.70319 1048.6436,639.29999 1070.7257,639.29999 1070.7257,631.58063 1057.439,631.58063 1057.439,600.70319 Z"/>
	<path d="M 1102.1331,600.70319 1080.0511,600.70319 1080.0511,639.29999 1102.1331,639.29999 1102.1331,631.58063 1088.8465,631.58063 1088.8465,623.81448 1101.5717,623.81448 1101.5717,616.09512 1088.8465,616.09512 1088.8465,608.42255 1102.1331,608.42255 1102.1331,600.70319 Z"/>
	<path d="M 594.74274,555.60187 C 594.74274,556.7921 597.25071,555.85692 597.25071,556.74959 597.25071,557.8973 595.46538,564.7836 595.46538,568.69434 595.46538,572.00996 597.03817,572.69009 598.18589,572.69009 600.82139,572.69009 604.43457,569.79954 604.43457,568.69434 604.43457,568.09922 604.0945,568.09922 603.96698,568.09922 603.28685,568.09922 602.30917,569.96958 599.97123,569.96958 599.80119,569.96958 598.2284,569.88456 598.2284,567.63164 598.2284,566.95151 599.20608,561.42547 599.58865,558.78997 599.8437,557.04714 599.71618,556.282 600.94891,556.282 601.88409,556.282 603.71193,556.49454 604.39206,556.49454 605.1572,556.49454 605.41225,556.23949 605.41225,555.26181 605.41225,554.75171 605.19971,554.45416 604.30704,554.45416 603.83945,554.45416 603.49939,554.49666 601.84158,554.49666 600.43881,554.49666 600.3538,554.45416 600.3538,554.19911 600.3538,553.56149 601.11894,551.56361 601.11894,551.01101 601.11894,550.62844 600.9064,550.50091 600.69386,550.50091 600.01373,550.50091 599.92872,551.05352 598.2284,552.83885 596.35805,554.79422 594.74274,554.75171 594.74274,555.60187 Z"/>
	<path d="M 606.85022,559.59762 C 606.85022,560.19274 607.19028,560.32026 607.36031,560.32026 607.57285,560.32026 607.70038,560.19274 607.8279,560.06521 608.08295,559.76766 608.42301,557.21718 610.16584,557.21718 610.93098,557.21718 611.61111,557.98232 611.61111,560.10772 611.61111,563.29582 609.78327,569.5445 609.78327,571.24482 609.78327,572.26501 610.63343,572.35002 611.05851,572.35002 L 611.27105,572.35002 C 612.80134,572.35002 612.71632,572.35002 613.6515,565.12366 L 613.86404,563.7209 C 614.07658,561.93556 615.13928,556.36702 617.05214,556.36702 618.58242,556.36702 618.41239,558.15235 619.34757,558.15235 620.11271,558.15235 620.19773,556.8346 620.28274,556.53705 620.41027,556.06946 620.75033,555.51686 620.75033,554.96425 620.75033,554.36914 620.28274,553.6465 619.17754,553.6465 616.03194,553.6465 613.90654,558.02483 613.60899,558.02483 613.52397,558.02483 613.48146,557.98232 612.41876,555.2193 612.16372,554.53917 611.73864,553.73152 610.84597,553.73152 610.4634,553.73152 606.85022,554.75171 606.85022,559.59762 Z"/>
	<path d="M 620.44148,567.33408 C 620.44148,570.0971 620.95158,572.81761 624.98984,572.81761 629.0281,572.81761 632.55626,567.71665 632.7688,567.71665 633.06636,567.71665 632.68379,572.47755 635.4043,572.47755 636.55202,572.47755 638.46488,570.52218 639.52758,568.99189 640.08018,568.22675 640.29272,567.58913 640.29272,567.16405 640.29272,566.99402 640.25021,566.69646 639.91015,566.69646 639.1025,566.69646 638.20983,569.45948 636.80706,569.45948 635.99941,569.45948 635.36179,568.05672 635.36179,566.95151 635.36179,565.3362 635.78687,563.38084 636.12694,561.51048 636.467,559.59762 636.72205,557.64226 637.10462,556.06946 637.40218,554.83673 637.95478,553.81654 637.95478,553.13641 637.95478,552.66882 637.74224,552.49879 637.48719,552.49879 636.63703,552.49879 636.12694,554.58168 635.27678,554.58168 633.87401,554.58168 632.98134,554.11409 631.6636,554.11409 630.55839,554.11409 629.70823,554.32663 628.56051,554.87924 626.30759,555.94194 624.35222,557.98232 622.82193,560.40528 621.50418,562.53068 620.44148,564.95363 620.44148,567.33408 Z M 623.41704,567.07903 C 623.41704,566.31389 623.50206,565.54874 623.62958,564.7836 624.01216,562.57318 625.03235,560.66032 626.26508,558.61994 627.54032,556.45203 629.79324,555.17679 631.53607,555.17679 632.42874,555.17679 634.3416,555.47435 634.3416,556.66457 634.3416,556.7921 633.19388,564.61357 632.17369,566.65395 631.79112,567.4191 629.79324,570.47967 626.73267,570.47967 624.94733,570.47967 623.41704,569.20443 623.41704,567.07903 Z"/>
	<path d="M 641.68751,558.53492 C 641.68751,559.00251 641.77253,559.34258 642.07008,559.34258 643.00526,559.34258 643.47285,556.96213 644.7906,556.96213 645.21568,556.96213 645.76828,557.81229 645.76828,559.30007 645.76828,562.57318 643.89793,569.16192 643.89793,570.94726 643.89793,572.17999 644.23799,572.26501 645.38571,572.26501 646.49092,572.26501 646.83098,572.09498 646.9585,571.1598 647.04352,570.56469 646.74596,571.07478 647.80866,565.3362 648.82886,559.85267 648.31876,560.23524 650.1466,557.64226 651.12429,556.23949 651.93194,555.7719 652.90962,555.7719 655.67264,555.7719 655.88518,558.57743 655.88518,559.25756 655.88518,560.83036 654.99252,566.52643 654.99252,569.75704 654.99252,571.24482 655.71515,572.43504 656.56531,572.43504 658.43566,572.43504 662.17637,569.45948 662.17637,567.80167 662.17637,567.54662 662.09135,567.29157 661.7938,567.29157 661.15618,567.29157 660.98614,567.80167 660.47605,568.43929 660.47605,568.43929 659.49836,569.37446 658.77573,569.37446 658.30814,569.37446 657.96808,569.0344 657.96808,567.84418 657.96808,566.3989 658.69071,561.89306 658.69071,558.9175 658.69071,556.23949 658.0956,553.604 655.12004,553.604 653.3347,553.604 651.08178,555.13428 649.93406,556.02695 648.36127,557.21718 648.06371,558.15235 647.80866,558.15235 647.42609,558.15235 648.31876,553.68901 645.8533,553.68901 644.23799,553.68901 641.68751,556.87711 641.68751,558.53492 Z"/>
	<path d="M 663.63825,569.88456 C 663.63825,572.13748 666.69882,572.69009 668.35663,572.69009 673.79766,572.69009 674.98788,568.65183 674.98788,567.12154 674.98788,564.2735 673.37258,563.08328 672.05483,561.5955 671.03464,560.49029 668.6967,558.74746 668.6967,557.13216 668.6967,555.85692 669.33432,554.87924 670.94962,554.87924 672.60743,554.87924 672.77747,557.25968 674.30775,557.25968 674.52029,557.25968 675.92306,557.13216 675.92306,555.81441 675.92306,554.1566 674.26525,553.604 671.96981,553.604 668.65419,553.604 666.18873,555.55936 666.18873,558.4074 666.18873,560.95788 667.80403,562.06309 669.50435,563.80592 671.03464,565.3362 672.4374,566.56894 672.4374,568.56681 672.4374,569.07691 672.13985,571.28732 669.03676,571.28732 666.44377,571.28732 667.16641,568.35427 664.9985,568.35427 664.48841,568.35427 663.63825,568.56681 663.63825,569.88456 Z"/>
	<path d="M 678.73788,568.5243 C 678.73788,572.52006 679.97062,572.52006 680.82078,572.52006 681.62843,572.52006 683.41376,571.6699 684.51897,570.39466 685.53916,569.20443 686.64437,567.75916 686.64437,567.33408 686.64437,566.909 686.43183,566.65395 686.13428,566.65395 685.02907,566.65395 684.60399,569.67202 682.26605,569.67202 681.71344,569.67202 681.58592,569.45948 681.58592,568.01421 681.58592,566.56894 682.09602,563.89093 682.81865,558.87499 684.17891,549.73577 683.45627,551.30856 685.02907,543.06201 685.15659,542.25436 685.45415,541.70176 685.45415,541.10665 685.45415,540.68157 685.24161,540.42652 684.56148,540.42652 683.45627,540.42652 682.5211,540.8516 679.41801,541.06414 678.86541,541.10665 678.78039,541.44671 678.78039,541.65925 678.78039,542.12684 679.16296,542.25436 680.01312,542.25436 680.52322,542.25436 680.60824,542.21185 681.24586,542.21185 681.88348,542.21185 682.30856,542.55192 682.30856,543.06201 682.30856,543.57211 681.67094,547.39783 680.9483,551.98869 680.52322,554.7092 680.31068,557.72727 679.92811,560.40528 679.84309,561.0854 678.73788,566.10135 678.73788,568.5243 Z"/>
	<path d="M 689.26791,567.33408 C 689.26791,570.0971 689.77801,572.81761 693.81627,572.81761 697.85453,572.81761 701.38269,567.71665 701.59523,567.71665 701.89279,567.71665 701.51021,572.47755 704.23073,572.47755 705.37844,572.47755 707.2913,570.52218 708.354,568.99189 708.90661,568.22675 709.11915,567.58913 709.11915,567.16405 709.11915,566.99402 709.07664,566.69646 708.73657,566.69646 707.92892,566.69646 707.03625,569.45948 705.63349,569.45948 704.82584,569.45948 704.18822,568.05672 704.18822,566.95151 704.18822,565.3362 704.6133,563.38084 704.95336,561.51048 705.29343,559.59762 705.54847,557.64226 705.93105,556.06946 706.2286,554.83673 706.78121,553.81654 706.78121,553.13641 706.78121,552.66882 706.56867,552.49879 706.31362,552.49879 705.46346,552.49879 704.95336,554.58168 704.1032,554.58168 702.70044,554.58168 701.80777,554.11409 700.49002,554.11409 699.38481,554.11409 698.53465,554.32663 697.38694,554.87924 695.13401,555.94194 693.17865,557.98232 691.64836,560.40528 690.33061,562.53068 689.26791,564.95363 689.26791,567.33408 Z M 692.24347,567.07903 C 692.24347,566.31389 692.32849,565.54874 692.45601,564.7836 692.83858,562.57318 693.85877,560.66032 695.09151,558.61994 696.36675,556.45203 698.61967,555.17679 700.3625,555.17679 701.25517,555.17679 703.16803,555.47435 703.16803,556.66457 703.16803,556.7921 702.02031,564.61357 701.00012,566.65395 700.61755,567.4191 698.61967,570.47967 695.55909,570.47967 693.77376,570.47967 692.24347,569.20443 692.24347,567.07903 Z"/>
	<path d="M 711.1416,555.60187 C 711.1416,556.7921 713.64957,555.85692 713.64957,556.74959 713.64957,557.8973 711.86423,564.7836 711.86423,568.69434 711.86423,572.00996 713.43703,572.69009 714.58475,572.69009 717.22024,572.69009 720.83342,569.79954 720.83342,568.69434 720.83342,568.09922 720.49336,568.09922 720.36583,568.09922 719.68571,568.09922 718.70802,569.96958 716.37008,569.96958 716.20005,569.96958 714.62725,569.88456 714.62725,567.63164 714.62725,566.95151 715.60494,561.42547 715.98751,558.78997 716.24256,557.04714 716.11503,556.282 717.34777,556.282 718.28294,556.282 720.11079,556.49454 720.79091,556.49454 721.55606,556.49454 721.81111,556.23949 721.81111,555.26181 721.81111,554.75171 721.59857,554.45416 720.7059,554.45416 720.23831,554.45416 719.89825,554.49666 718.24043,554.49666 716.83767,554.49666 716.75265,554.45416 716.75265,554.19911 716.75265,553.56149 717.5178,551.56361 717.5178,551.01101 717.5178,550.62844 717.30526,550.50091 717.09272,550.50091 716.41259,550.50091 716.32757,551.05352 714.62725,552.83885 712.7569,554.79422 711.1416,554.75171 711.1416,555.60187 Z"/>
	<path d="M 723.39054,565.93132 C 723.39054,569.71453 724.70829,572.69009 730.10681,572.69009 733.805,572.69009 737.5032,569.71453 737.5032,568.73684 737.5032,568.4818 737.33317,568.31176 736.9931,568.31176 736.52552,568.31176 734.8252,570.13961 732.40224,570.13961 728.19395,570.13961 726.28109,568.01421 726.28109,564.82611 726.28109,563.7209 726.40861,563.08328 727.00372,563.08328 730.99948,563.04077 733.29491,562.1056 733.67748,561.93556 734.48513,561.5955 737.80076,559.85267 737.80076,556.7921 737.80076,554.92174 736.10044,553.6465 734.10256,553.6465 731.72211,553.6465 729.76674,554.41165 728.19395,555.89943 725.2609,558.61994 723.39054,562.27563 723.39054,565.93132 Z M 726.8762,561.51048 C 726.8762,560.95788 727.85388,558.23737 729.12912,556.91962 730.23433,555.7719 731.55208,554.92174 732.61478,554.92174 733.33742,554.92174 734.8677,555.30432 734.8677,556.91962 734.8677,559.59762 731.38205,562.36064 727.25877,562.36064 726.96122,562.36064 726.8762,561.80804 726.8762,561.51048 Z"/>
	<path d="M 739.85575,566.86649 C 739.85575,570.05459 741.34353,572.52006 744.95671,572.52006 749.16501,572.52006 751.33291,567.75916 751.71549,567.75916 752.3106,567.75916 751.33291,572.52006 754.30847,572.52006 757.07149,572.52006 759.7495,568.22675 759.7495,567.33408 759.7495,567.16405 759.62197,566.95151 759.28191,566.95151 758.60178,566.95151 757.6241,569.587 755.75375,569.587 754.77606,569.587 754.64854,568.69434 754.64854,567.75916 754.64854,566.48392 755.07362,563.80592 755.54121,560.57531 757.92165,543.18954 758.34673,541.82928 758.34673,540.72407 758.34673,540.3415 758.04918,540.00144 757.66661,540.00144 756.51889,540.00144 756.77394,540.08645 754.39349,540.68157 753.20327,540.97912 751.71549,540.80909 751.71549,541.53173 751.71549,541.82928 751.97053,541.99931 752.39561,541.99931 752.43812,541.99931 753.41581,541.95681 753.88339,541.95681 754.52101,541.95681 755.11613,542.38189 755.11613,543.01951 755.11613,543.31706 753.71336,554.49666 753.58584,554.49666 752.39561,554.49666 751.54545,553.94406 750.44025,553.94406 745.38179,553.94406 739.85575,560.27775 739.85575,566.86649 Z M 742.83131,565.67627 C 742.83131,561.21293 746.31697,554.83673 750.22771,554.83673 751.37542,554.83673 753.07574,555.38933 753.07574,556.53705 753.07574,558.23737 752.43812,565.71878 750.7378,567.84418 749.63259,569.24694 747.97478,570.05459 746.44449,570.05459 743.85151,570.05459 742.83131,568.14173 742.83131,565.67627 Z"/>
	<path d="M 771.05796,569.16192 C 771.05796,571.62739 773.73596,572.7326 776.24393,572.7326 782.83267,572.7326 787.84862,565.12366 787.84862,559.34258 787.84862,556.57956 786.36084,553.94406 783.17274,553.94406 778.28432,553.94406 776.28644,557.8973 775.69133,557.8973 775.60631,557.8973 775.47879,557.55724 775.47879,557.25968 775.47879,554.19911 778.1993,541.53173 778.1993,540.76658 778.1993,540.29899 777.85924,540.00144 777.39165,540.00144 777.1366,540.00144 776.37146,540.25649 774.71365,540.46903 772.75828,540.72407 771.56805,540.68157 771.56805,541.53173 771.56805,542.12684 771.90812,542.12684 772.37571,542.12684 773.01333,542.12684 773.48091,542.04182 774.11853,542.04182 774.96869,542.04182 775.18123,542.33938 775.18123,542.55192 775.18123,543.57211 774.92619,545.05989 774.54361,546.88773 773.90599,550.03332 773.3959,554.1566 772.63075,558.57743 772.03564,562.02058 771.05796,566.44141 771.05796,569.16192 Z M 773.86349,568.65183 C 773.86349,568.22675 774.33107,563.67839 775.56381,560.32026 776.92406,556.62206 779.68708,556.19698 780.70727,556.19698 783.04521,556.19698 784.87306,558.15235 784.87306,560.5328 784.87306,565.42122 780.96232,571.54237 777.1366,571.54237 774.50111,571.54237 773.86349,570.0971 773.86349,568.65183 Z"/>
	<path d="M 789.4938,577.49349 C 789.4938,579.44886 791.19412,580.00146 793.02196,580.00146 797.01772,580.00146 799.73823,575.15555 801.7361,570.0971 804.24408,563.76341 805.26427,557.8973 805.26427,555.98444 805.26427,554.6667 804.54163,553.73152 803.60646,553.73152 802.58626,553.73152 802.16118,554.53917 802.16118,555.30432 802.16118,556.45203 803.22388,557.30219 803.22388,558.53492 803.22388,561.38296 802.28871,565.93132 801.6936,565.93132 801.22601,565.93132 797.18775,553.85904 793.06447,553.85904 790.47148,553.85904 789.62132,557.55724 789.62132,559.34258 789.62132,560.06521 789.79136,560.27775 790.0464,560.27775 791.32164,560.27775 790.42898,557.08965 792.89444,557.08965 795.14736,557.08965 799.82324,568.05672 799.82324,570.43716 799.82324,572.05247 797.01772,577.49349 794.55225,577.49349 792.59688,577.49349 792.55438,576.09073 790.85406,576.09073 790.13142,576.09073 789.4938,576.77086 789.4938,577.49349 Z"/>
</svg>
